<svg width="185" height="94" viewBox="0 0 185 94" fill="none" xmlns="http://www.w3.org/2000/svg">
<path d="M-4.77406e-06 9.99589L9.99591 -1.33674e-05V70.548H-4.77406e-06V9.99589ZM39.5939 22.4908C42.8618 22.4908 45.9375 23.1315 48.8209 24.4131C51.7684 25.6305 54.3315 27.3285 56.5101 29.5071C58.6887 31.6857 60.4187 34.2488 61.7003 37.1963C62.9818 40.0797 63.6226 43.1874 63.6226 46.5194C63.6226 49.8514 62.9818 52.9911 61.7003 55.9386C60.4187 58.8221 58.6887 61.3531 56.5101 63.5317C54.3315 65.6462 51.7684 67.3442 48.8209 68.6258C45.9375 69.8432 42.8618 70.4519 39.5939 70.4519C36.262 70.4519 33.1222 69.8432 30.1747 68.6258C27.2913 67.3442 24.7602 65.6462 22.5817 63.5317C20.4671 61.3531 18.7691 58.8221 17.4876 55.9386C16.2701 52.9911 15.6614 49.8514 15.6614 46.5194C15.6614 43.1874 16.2701 40.0797 17.4876 37.1963C18.7691 34.2488 20.4671 31.6857 22.5817 29.5071C24.7602 27.3285 27.2913 25.6305 30.1747 24.4131C33.1222 23.1315 36.262 22.4908 39.5939 22.4908ZM39.5939 60.456C41.5162 60.456 43.3424 60.1036 45.0724 59.3988C46.8025 58.6298 48.2763 57.6367 49.4937 56.4192C50.7752 55.1377 51.7684 53.6639 52.4733 51.9979C53.2422 50.2679 53.6266 48.4417 53.6266 46.5194C53.6266 44.5971 53.2422 42.7709 52.4733 41.0409C51.7684 39.3108 50.7752 37.8371 49.4937 36.6196C48.2763 35.3381 46.8025 34.3449 45.0724 33.6401C43.3424 32.8712 41.5162 32.4867 39.5939 32.4867C37.6716 32.4867 35.8455 32.8712 34.1154 33.6401C32.3853 34.3449 30.8795 35.3381 29.598 36.6196C28.3165 37.8371 27.2913 39.3108 26.5223 41.0409C25.8175 42.7709 25.4651 44.5971 25.4651 46.5194C25.4651 48.4417 25.8175 50.2679 26.5223 51.9979C27.2913 53.6639 28.3165 55.1377 29.598 56.4192C30.8795 57.6367 32.3853 58.6298 34.1154 59.3988C35.8455 60.1036 37.6716 60.456 39.5939 60.456ZM113.11 37.0041C113.686 38.4778 114.135 40.0157 114.455 41.6176C114.776 43.2195 114.936 44.8534 114.936 46.5194V76.2188C114.936 79.743 114.231 83.0109 112.821 86.0225C111.476 89.0981 109.617 91.7573 107.247 94L99.8457 87.1759C101.448 85.8303 102.729 84.1963 103.69 82.274C104.651 80.4158 105.1 78.3974 105.036 76.2188L104.94 46.3272C104.94 44.533 104.555 42.7069 103.786 40.8487C103.658 40.4642 103.498 40.1118 103.306 39.7914C103.114 39.4069 102.889 38.9904 102.633 38.5419C101.352 36.6196 99.6535 35.1138 97.539 34.0245C95.4885 32.8712 93.2138 32.2945 90.7148 32.2945C88.7925 32.2945 86.9984 32.6789 85.3324 33.4478C83.6664 34.1527 82.1927 35.1459 80.9111 36.4274C79.6296 37.7089 78.6044 39.2147 77.8355 40.9448C77.1306 42.6108 76.7782 44.4049 76.7782 46.3272C76.7782 48.2495 77.1306 50.0757 77.8355 51.8057C78.6044 53.5358 79.6296 55.0416 80.9111 56.3231C82.1927 57.6046 83.6664 58.6298 85.3324 59.3988C86.9984 60.1036 88.7925 60.456 90.7148 60.456C91.4197 60.456 92.0604 60.456 92.6371 60.456C93.2138 60.3919 93.7905 60.2638 94.3672 60.0716L96.6739 69.683C95.7769 70.0034 94.8157 70.2277 93.7905 70.3558C92.8294 70.484 91.8041 70.548 90.7148 70.548C87.7032 70.548 84.8198 70.0034 82.0645 68.9141C79.3733 67.8248 76.9384 66.319 74.7598 64.3967C72.6453 62.4744 70.8832 60.2318 69.4735 57.6687C68.1279 55.0416 67.2949 52.2222 66.9745 49.2106C66.8464 48.6339 66.7823 48.1213 66.7823 47.6728C66.7823 47.2243 66.7823 46.7757 66.7823 46.3272C66.7823 42.9952 67.391 39.8875 68.6085 37.0041C69.89 34.1206 71.6201 31.5896 73.7987 29.411C75.9773 27.2324 78.5083 25.5344 81.3917 24.317C84.3392 23.0354 87.4469 22.3947 90.7148 22.3947C93.2138 22.3947 95.6167 22.7471 97.9234 23.4519C100.23 24.1568 102.345 25.182 104.267 26.5276C106.253 27.8091 107.983 29.347 109.457 31.1411C110.995 32.9352 112.212 34.8896 113.11 37.0041ZM130.219 70.548H120.32V22.4908H130.219V70.548ZM130.219 12.3988H120.32V10.2842L130.219 0.288332V12.3988ZM184.441 70.548H174.445V46.5194C174.445 44.5971 174.06 42.7709 173.291 41.0409C172.587 39.3108 171.593 37.8371 170.312 36.6196C169.03 35.3381 167.525 34.3449 165.795 33.6401C164.129 32.8712 162.334 32.4867 160.412 32.4867C158.49 32.4867 156.664 32.8712 154.934 33.6401C153.268 34.3449 151.794 35.3381 150.512 36.6196C149.231 37.8371 148.206 39.3108 147.437 41.0409C146.732 42.7709 146.379 44.5971 146.379 46.5194V70.548H136.383V46.5194C136.319 43.2515 136.896 40.1759 138.114 37.2924C139.395 34.3449 141.125 31.7819 143.304 29.6033C145.482 27.4247 148.045 25.6946 150.993 24.4131C153.94 23.1315 157.08 22.4908 160.412 22.4908C163.744 22.4908 166.884 23.1315 169.831 24.4131C172.779 25.6946 175.342 27.4247 177.521 29.6033C179.699 31.7819 181.397 34.3449 182.615 37.2924C183.896 40.1759 184.505 43.2515 184.441 46.5194V70.548Z" fill="white"/>
</svg>
